<svg id="ëÎÓÈ_1" data-name="ëÎÓÈ 1" xmlns="http://www.w3.org/2000/svg" width="344.3474" height="176.0686" viewBox="0 0 344.3474 176.0686">
  <defs>
    <style>
      .cls-1 {
        fill: none;
      }

      .cls-2 {
        fill: #78d9ff;
      }

      .cls-3 {
        opacity: 0.2;
      }

      .cls-4 {
        fill: #fff;
      }

      .cls-5 {
        fill: #ebebeb;
      }
    </style>
  </defs>
  <g>
    <path class="cls-1" d="M325.7049,102.649A13.7166,13.7166,0,0,0,312.004,88.9477a9.9042,9.9042,0,0,0-9.893,9.8929V99.15a3.1864,3.1864,0,0,1-3.1863,3.1865,3.15,3.15,0,0,1-1.4942-.3882,44.9378,44.9378,0,0,1,8.2154,14.4018h6.3581A13.7164,13.7164,0,0,0,325.7049,102.649Z"/>
    <path class="cls-2" d="M297.4305,101.9482q-.7149-.8428-1.47-1.6488A3.1793,3.1793,0,0,0,297.4305,101.9482Z"/>
    <path class="cls-3" d="M327.4533,131.2885h-19.347c0-.0813.0061-.1611.0061-.2425a45.2068,45.2068,0,0,0-.7806-8.3232h4.6721a20.074,20.074,0,0,0,0-40.148,16.2838,16.2838,0,0,0-16.2651,16.2658V99.15a3.1664,3.1664,0,0,0,.222,1.15,44.891,44.891,0,0,0-32.6729-14.2711,74.9316,74.9316,0,0,0-133.2714-42.787,55.6146,55.6146,0,0,0-75.045,52.092,56.0989,56.0989,0,0,0,.3978,6.5561A37.3092,37.3092,0,1,0,49.66,176.0686H263.09a45.0293,45.0293,0,0,0,44.5346-38.4072h19.8291a10.5212,10.5212,0,1,1,0,21.0424,3.1865,3.1865,0,1,0,0,6.3729,16.8941,16.8941,0,1,0,0-33.7882Zm-30.0228-29.34a3.1805,3.1805,0,0,1-1.47-1.6486q.7548.8064,1.47,1.6486a3.15,3.15,0,0,0,1.4941.3882A3.1864,3.1864,0,0,0,302.111,99.15v-.3093a9.9042,9.9042,0,0,1,9.8929-9.8929,13.7012,13.7012,0,0,1,0,27.4023h-6.3581A44.9357,44.9357,0,0,0,297.4305,101.9482Z"/>
    <g>
      <path class="cls-1" d="M313.3524,87.458a13.7164,13.7164,0,0,0-13.7009-13.7012,9.9041,9.9041,0,0,0-9.893,9.8928v.3094a3.1864,3.1864,0,0,1-3.1863,3.1865,3.15,3.15,0,0,1-1.4942-.3882,44.9367,44.9367,0,0,1,8.2154,14.4018h6.3581A13.7163,13.7163,0,0,0,313.3524,87.458Z"/>
      <path class="cls-4" d="M117.6636,28.05a55.6146,55.6146,0,0,0-75.045,52.092,56.074,56.074,0,0,0,.3979,6.556,37.3092,37.3092,0,1,0-5.7094,74.1792H147.88V5.5263A75.1886,75.1886,0,0,0,117.6636,28.05Z"/>
      <path class="cls-5" d="M209.68,119.284a3.1863,3.1863,0,0,1,3.1863-3.1864h82.8879c0-.0813.0062-.1611.0062-.2425a45.2174,45.2174,0,0,0-.7807-8.3233H191.1429a3.1864,3.1864,0,0,1,0-6.3727H293.2934a44.9367,44.9367,0,0,0-8.2154-14.4018,3.18,3.18,0,0,1-1.47-1.6489,44.8907,44.8907,0,0,0-32.6731-14.271A74.9251,74.9251,0,0,0,147.88,5.5263V160.8776H250.7373A45.029,45.029,0,0,0,295.2717,122.47H212.8659A3.1862,3.1862,0,0,1,209.68,119.284ZM182.5784,90.7084a3.1863,3.1863,0,0,1,3.1863-3.1865h85.0722a3.1865,3.1865,0,1,1,0,6.3729H185.7647A3.1864,3.1864,0,0,1,182.5784,90.7084Zm96.75,52.6071a13.4339,13.4339,0,0,1-13.4191,13.4186,11.1236,11.1236,0,0,1-11.111-11.111v-.1875a3.1864,3.1864,0,1,1,6.3728,0v.1875a4.7438,4.7438,0,0,0,4.7382,4.7383,7.0459,7.0459,0,1,0,0-14.0917H200.1632a3.1865,3.1865,0,1,1,0-6.3729h65.7459A13.434,13.434,0,0,1,279.3282,143.3155Z"/>
      <path class="cls-2" d="M286.5722,87.1455a3.1864,3.1864,0,0,0,3.1863-3.1865V83.65a9.9041,9.9041,0,0,1,9.893-9.8928,13.7012,13.7012,0,0,1,0,27.4023h-6.3581a44.6456,44.6456,0,0,1,1.6859,6.3727h4.6722a20.074,20.074,0,0,0,0-40.1479A16.2837,16.2837,0,0,0,283.3859,83.65v.3094a3.1643,3.1643,0,0,0,.2221,1.1494q.7548.8066,1.47,1.6489A3.15,3.15,0,0,0,286.5722,87.1455Z"/>
      <path class="cls-2" d="M191.1429,101.1591a3.1864,3.1864,0,0,0,0,6.3727H294.9793a44.6456,44.6456,0,0,0-1.6859-6.3727Z"/>
      <path class="cls-2" d="M285.078,86.7573q-.7147-.8428-1.47-1.6489A3.18,3.18,0,0,0,285.078,86.7573Z"/>
      <path class="cls-2" d="M196.9767,133.0833a3.1865,3.1865,0,0,0,3.1865,3.1864h65.7459a7.0459,7.0459,0,1,1,0,14.0917,4.7438,4.7438,0,0,1-4.7382-4.7383v-.1875a3.1864,3.1864,0,1,0-6.3728,0v.1875a11.1236,11.1236,0,0,0,11.111,11.111,13.4187,13.4187,0,1,0,0-26.8373H200.1632A3.1865,3.1865,0,0,0,196.9767,133.0833Z"/>
      <path class="cls-2" d="M274.0235,90.7084a3.1866,3.1866,0,0,0-3.1866-3.1865H185.7647a3.1865,3.1865,0,0,0,0,6.3729h85.0722A3.1866,3.1866,0,0,0,274.0235,90.7084Z"/>
      <path class="cls-2" d="M315.1007,116.0976H295.7538a45.3631,45.3631,0,0,1-.4821,6.3727h19.829a10.5213,10.5213,0,1,1,0,21.0426,3.1864,3.1864,0,1,0,0,6.3727,16.894,16.894,0,1,0,0-33.788Z"/>
      <path class="cls-2" d="M212.8659,116.0976a3.1864,3.1864,0,0,0,0,6.3727h82.4058a45.3631,45.3631,0,0,0,.4821-6.3727Z"/>
    </g>
  </g>
</svg>
