<svg id="ëÎÓÈ_1" data-name="ëÎÓÈ 1" xmlns="http://www.w3.org/2000/svg" width="146.6989" height="270.661" viewBox="0 0 146.6989 270.661">
  <defs>
    <style>
      .cls-1 {
        opacity: 0.2;
      }

      .cls-2 {
        fill: #fff;
      }

      .cls-3 {
        fill: #ebebeb;
      }

      .cls-4 {
        fill: #004c94;
      }

      .cls-5 {
        fill: #00376b;
      }
    </style>
  </defs>
  <g>
    <g class="cls-1">
      <path d="M102.08,167.57V44.0338a32.9421,32.9421,0,0,0-65.8842,0V167.57a56.815,56.815,0,1,0,65.8842,0Z"/>
      <path d="M117.99,60.0879H142.6a4.0993,4.0993,0,0,0,0-8.1986H117.99a4.0993,4.0993,0,1,0,0,8.1986Z"/>
      <path d="M142.6,99.8789H117.99a4.0993,4.0993,0,1,0,0,8.1986H142.6a4.0993,4.0993,0,0,0,0-8.1986Z"/>
      <path d="M142.6,147.8685H117.99a4.0994,4.0994,0,1,0,0,8.1987H142.6a4.0994,4.0994,0,0,0,0-8.1987Z"/>
    </g>
    <g>
      <path class="cls-2" d="M17.7655,203.2446A39.0465,39.0465,0,0,1,40.418,167.8053V117.9808a16.3968,16.3968,0,0,1,16.3969-16.3973V0h0a32.9421,32.9421,0,0,0-32.942,32.9422V156.4786A56.8057,56.8057,0,0,0,56.8149,259.57h0V242.2938A39.05,39.05,0,0,1,17.7655,203.2446Z"/>
      <g>
        <path class="cls-3" d="M89.7571,156.4786V32.9422A32.9424,32.9424,0,0,0,56.8149,0V101.5835a16.3969,16.3969,0,0,1,16.3973,16.3973v49.8245a39.049,39.049,0,0,1-16.3973,74.4885V259.57A56.8057,56.8057,0,0,0,89.7571,156.4786Z"/>
        <path class="cls-3" d="M105.6667,48.9964h24.61a4.0993,4.0993,0,0,0,0-8.1986h-24.61a4.0993,4.0993,0,1,0,0,8.1986Z"/>
        <path class="cls-3" d="M130.2768,88.7874h-24.61a4.0993,4.0993,0,1,0,0,8.1986h24.61a4.0993,4.0993,0,0,0,0-8.1986Z"/>
        <path class="cls-3" d="M130.2768,136.777h-24.61a4.0993,4.0993,0,1,0,0,8.1986h24.61a4.0993,4.0993,0,0,0,0-8.1986Z"/>
      </g>
      <path class="cls-4" d="M40.418,117.9808v49.8245a39.0488,39.0488,0,0,0,16.3969,74.4885v-140.71A16.3968,16.3968,0,0,0,40.418,117.9808Z"/>
      <path class="cls-5" d="M95.8641,203.2446a39.0462,39.0462,0,0,0-22.6519-35.4393V117.9808a16.3969,16.3969,0,0,0-16.3973-16.3973v140.71A39.0492,39.0492,0,0,0,95.8641,203.2446Z"/>
    </g>
  </g>
</svg>
