<svg id="ëÎÓÈ_1" data-name="ëÎÓÈ 1" xmlns="http://www.w3.org/2000/svg" width="330.9552" height="256.214" viewBox="0 0 330.9552 256.214">
  <defs>
    <style>
      .cls-1 {
        opacity: 0.2;
      }

      .cls-2 {
        fill: #fff;
      }

      .cls-3 {
        fill: #ebebeb;
      }
    </style>
  </defs>
  <g>
    <g class="cls-1">
      <path d="M114.0522,216.863a4.0993,4.0993,0,0,0-5.6-1.5l-13.02,7.5173V207.8453a4.0993,4.0993,0,0,0-8.1986,0V222.88l-13.02-7.5173a4.0993,4.0993,0,0,0-4.0993,7.1l13.02,7.5171-13.02,7.5175a4.0993,4.0993,0,1,0,4.0993,7.1l13.02-7.5173v15.0345a4.0993,4.0993,0,0,0,8.1986,0V237.08l13.02,7.5173a4.0993,4.0993,0,0,0,4.0993-7.1l-13.02-7.5175,13.02-7.5171A4.0992,4.0992,0,0,0,114.0522,216.863Z"/>
      <path d="M282.8082,90.7738A80.4663,80.4663,0,0,0,139.66,44.816a59.7359,59.7359,0,0,0-80.6065,55.9524,60.2388,60.2388,0,0,0,.4275,7.0419,40.074,40.074,0,1,0-6.1326,79.6764h229.247a48.3567,48.3567,0,0,0,.2124-96.7129Z"/>
      <path d="M193.9536,216.863a4.0989,4.0989,0,0,0-5.6-1.5l-13.02,7.5173V207.8453a4.0993,4.0993,0,0,0-8.1986,0V222.88l-13.02-7.5173a4.0993,4.0993,0,0,0-4.0993,7.1l13.02,7.5171-13.02,7.5175a4.0993,4.0993,0,1,0,4.0993,7.1l13.02-7.5173v15.0345a4.0993,4.0993,0,1,0,8.1986,0V237.08l13.02,7.5173a4.0992,4.0992,0,1,0,4.0992-7.1l-13.02-7.5175,13.02-7.5171A4.0992,4.0992,0,0,0,193.9536,216.863Z"/>
      <path d="M271.5947,216.863a4.099,4.099,0,0,0-5.6-1.5l-13.02,7.5173V207.8453a4.0993,4.0993,0,1,0-8.1985,0V222.88l-13.02-7.5173a4.0993,4.0993,0,0,0-4.0993,7.1l13.02,7.5171-13.02,7.5175a4.0993,4.0993,0,1,0,4.0993,7.1l13.02-7.5173v15.0345a4.0993,4.0993,0,1,0,8.1985,0V237.08l13.02,7.5173a4.0993,4.0993,0,1,0,4.0993-7.1l-13.02-7.5175,13.02-7.5171A4.099,4.099,0,0,0,271.5947,216.863Z"/>
    </g>
    <g>
      <path class="cls-2" d="M126.3833,30.1291A59.7361,59.7361,0,0,0,45.7769,86.0816a60.266,60.266,0,0,0,.4274,7.0419A40.074,40.074,0,1,0,40.0716,172.8H157.9573V6.2781A80.7943,80.7943,0,0,0,126.3833,30.1291Z"/>
      <path class="cls-2" d="M100.7752,202.1762a4.0992,4.0992,0,0,0-5.6-1.5l-13.02,7.5171V193.1585a4.0993,4.0993,0,1,0-8.1985,0v15.0344l-13.02-7.5171a4.0992,4.0992,0,1,0-4.0993,7.1l13.02,7.5173-13.02,7.5173a4.0993,4.0993,0,1,0,4.0993,7.1l13.02-7.5172v15.0345a4.0993,4.0993,0,1,0,8.1985,0V222.3934l13.02,7.5172a4.0993,4.0993,0,1,0,4.0993-7.1l-13.02-7.5173,13.02-7.5173A4.099,4.099,0,0,0,100.7752,202.1762Z"/>
      <path class="cls-2" d="M153.858,193.1585v15.0344l-13.02-7.5171a4.0992,4.0992,0,1,0-4.0993,7.1l13.02,7.5173-13.02,7.5173a4.0993,4.0993,0,1,0,4.0993,7.1l13.02-7.5172v15.0345a4.0993,4.0993,0,0,0,4.0993,4.0993v-52.468A4.0992,4.0992,0,0,0,153.858,193.1585Z"/>
      <g>
        <path class="cls-3" d="M269.531,76.0869A80.5245,80.5245,0,0,0,157.9573,6.2781V172.8H269.3188a48.3567,48.3567,0,0,0,.2122-96.713Z"/>
        <path class="cls-3" d="M162.0567,237.4279V222.3934l13.02,7.5172a4.0993,4.0993,0,0,0,4.0993-7.1l-13.02-7.5173,13.02-7.5173a4.0992,4.0992,0,1,0-4.0993-7.1l-13.02,7.5171V193.1585a4.0993,4.0993,0,0,0-4.0994-4.0993v52.468A4.0994,4.0994,0,0,0,162.0567,237.4279Z"/>
        <path class="cls-3" d="M258.3176,202.1762a4.0986,4.0986,0,0,0-5.6-1.5l-13.02,7.5171V193.1585a4.0994,4.0994,0,0,0-8.1987,0v15.0344l-13.02-7.5171a4.0992,4.0992,0,0,0-4.0993,7.1l13.02,7.5173L214.38,222.81a4.0993,4.0993,0,1,0,4.0993,7.1l13.02-7.5172v15.0345a4.0994,4.0994,0,0,0,8.1987,0V222.3934l13.02,7.5172a4.0993,4.0993,0,0,0,4.0993-7.1l-13.02-7.5173,13.02-7.5173A4.0989,4.0989,0,0,0,258.3176,202.1762Z"/>
      </g>
    </g>
  </g>
</svg>
