<svg id="ëÎÓÈ_1" data-name="ëÎÓÈ 1" xmlns="http://www.w3.org/2000/svg" width="147.8065" height="270.6608" viewBox="0 0 147.8065 270.6608">
  <defs>
    <style>
      .cls-1 {
        opacity: 0.2;
      }

      .cls-2 {
        fill: #fff;
      }

      .cls-3 {
        fill: #ebebeb;
      }

      .cls-4 {
        fill: #eb3449;
      }

      .cls-5 {
        fill: #bd293b;
      }
    </style>
  </defs>
  <g>
    <g class="cls-1">
      <path d="M103.1876,167.57V44.0337a32.9421,32.9421,0,1,0-65.8842,0V167.57a56.815,56.815,0,1,0,65.8842,0Z"/>
      <path d="M119.0973,60.0879h24.61a4.0994,4.0994,0,0,0,0-8.1987h-24.61a4.0994,4.0994,0,1,0,0,8.1987Z"/>
      <path d="M143.7073,99.8788h-24.61a4.0994,4.0994,0,1,0,0,8.1987h24.61a4.0994,4.0994,0,0,0,0-8.1987Z"/>
      <path d="M143.7073,147.8685h-24.61a4.0993,4.0993,0,1,0,0,8.1986h24.61a4.0993,4.0993,0,0,0,0-8.1986Z"/>
    </g>
    <g>
      <path class="cls-2" d="M56.8147,242.2937A39.0489,39.0489,0,0,1,40.418,167.8051V44.8971A16.3971,16.3971,0,0,1,56.8149,28.5V0h0a32.942,32.942,0,0,0-32.942,32.9421V156.4785a56.8056,56.8056,0,0,0,32.942,103.0908h0V242.2937Z"/>
      <path class="cls-3" d="M89.7571,156.4785V32.9421A32.9423,32.9423,0,0,0,56.8149,0V28.5h0A16.3972,16.3972,0,0,1,73.2126,44.8971V167.8052a39.049,39.049,0,0,1-16.3977,74.4885v17.2756A56.8056,56.8056,0,0,0,89.7571,156.4785Z"/>
      <g>
        <path class="cls-3" d="M105.6668,48.9964h24.61a4.0994,4.0994,0,0,0,0-8.1988h-24.61a4.0994,4.0994,0,1,0,0,8.1988Z"/>
        <path class="cls-3" d="M130.2768,88.7872h-24.61a4.0993,4.0993,0,1,0,0,8.1986h24.61a4.0993,4.0993,0,0,0,0-8.1986Z"/>
        <path class="cls-3" d="M130.2768,136.7768h-24.61a4.0994,4.0994,0,1,0,0,8.1988h24.61a4.0994,4.0994,0,0,0,0-8.1988Z"/>
      </g>
      <path class="cls-4" d="M40.418,44.8971v122.908a39.0489,39.0489,0,0,0,16.3967,74.4886h0V28.5A16.3971,16.3971,0,0,0,40.418,44.8971Z"/>
      <path class="cls-5" d="M95.8643,203.2444a39.047,39.047,0,0,0-22.6517-35.4392V44.8971A16.3972,16.3972,0,0,0,56.8153,28.5h0v213.794A39.0493,39.0493,0,0,0,95.8643,203.2444Z"/>
    </g>
  </g>
</svg>
