<svg id="ëÎÓÈ_1" data-name="ëÎÓÈ 1" xmlns="http://www.w3.org/2000/svg" width="300.8574" height="252.2828" viewBox="0 0 300.8574 252.2828">
  <defs>
    <style>
      .cls-1 {
        opacity: 0.2;
      }

      .cls-2 {
        fill: #fff;
      }

      .cls-3 {
        fill: #ebebeb;
      }

      .cls-4 {
        fill: #78d9ff;
      }
    </style>
  </defs>
  <g>
    <g class="cls-1">
      <path d="M257.3294,83.6221A72.7632,72.7632,0,0,0,127.9146,42.0732,54.0056,54.0056,0,0,0,55.041,92.6579a54.4664,54.4664,0,0,0,.3865,6.3663,36.23,36.23,0,1,0-5.5442,72.0327H257.1375a43.7176,43.7176,0,0,0,.1919-87.4348Z"/>
      <path d="M83.2012,191.3142a4.0993,4.0993,0,0,0-5.24,2.4816l-6.2457,17.4891a4.0995,4.0995,0,1,0,7.7214,2.7573l6.2459-17.4889A4.0994,4.0994,0,0,0,83.2012,191.3142Z"/>
      <path d="M124.3183,191.3142a4.0985,4.0985,0,0,0-5.2394,2.4816l-6.2458,17.4891a4.0995,4.0995,0,1,0,7.7214,2.7573L126.8,196.5533A4.0991,4.0991,0,0,0,124.3183,191.3142Z"/>
      <path d="M94.399,226.8333A4.1,4.1,0,0,0,89.16,229.315l-6.2459,17.4884a4.1,4.1,0,1,0,7.7215,2.7576l6.2458-17.4887A4.0992,4.0992,0,0,0,94.399,226.8333Z"/>
      <path d="M135.7235,226.8333a4.0987,4.0987,0,0,0-5.2393,2.4817l-6.2467,17.4884a4.1,4.1,0,1,0,7.7215,2.7576l6.2466-17.4887A4.0993,4.0993,0,0,0,135.7235,226.8333Z"/>
      <path d="M172.1979,226.215a4.0991,4.0991,0,0,0-5.2395,2.4815l-6.2458,17.4889a4.0995,4.0995,0,1,0,7.7214,2.7574l6.2459-17.4889A4.0991,4.0991,0,0,0,172.1979,226.215Z"/>
      <path d="M213.5224,226.215a4.0978,4.0978,0,0,0-5.2394,2.4815l-6.2465,17.4889a4.0994,4.0994,0,1,0,7.7213,2.7574l6.2467-17.4889A4.0991,4.0991,0,0,0,213.5224,226.215Z"/>
      <path d="M160.5868,190.6962a4.138,4.138,0,0,0-5.2394,2.4815l-6.2458,17.4887a4.0995,4.0995,0,1,0,7.7214,2.7573l6.2458-17.4885A4.099,4.099,0,0,0,160.5868,190.6962Z"/>
      <path d="M201.7049,190.6962a4.0985,4.0985,0,0,0-5.2394,2.4815l-6.2467,17.4887a4.1,4.1,0,1,0,7.7215,2.7573l6.2467-17.4885A4.1,4.1,0,0,0,201.7049,190.6962Z"/>
      <path d="M242.8222,190.6962a4.0986,4.0986,0,0,0-5.24,2.4815l-6.2459,17.4887a4.1,4.1,0,1,0,7.7216,2.7573l6.2458-17.4885A4.0993,4.0993,0,0,0,242.8222,190.6962Z"/>
    </g>
    <g>
      <path class="cls-2" d="M114.2587,27.2386A54.0054,54.0054,0,0,0,41.3853,77.8233a54.4883,54.4883,0,0,0,.3864,6.3663,36.23,36.23,0,1,0-5.5443,72.0327H143.6008V5.3663A73.0151,73.0151,0,0,0,114.2587,27.2386Z"/>
      <path class="cls-3" d="M243.6736,68.7876A72.7572,72.7572,0,0,0,143.6008,5.3663v150.856h99.8809a43.7176,43.7176,0,0,0,.1919-87.4347Z"/>
      <path class="cls-4" d="M69.5453,176.48a4.0991,4.0991,0,0,0-5.2394,2.4816L58.06,196.45a4.1,4.1,0,1,0,7.7215,2.7573l6.2458-17.4889A4.0993,4.0993,0,0,0,69.5453,176.48Z"/>
      <path class="cls-4" d="M110.6626,176.48a4.0984,4.0984,0,0,0-5.2394,2.4816L99.1773,196.45a4.1,4.1,0,1,0,7.7215,2.7573l6.2458-17.4889A4.0993,4.0993,0,0,0,110.6626,176.48Z"/>
      <path class="cls-4" d="M80.7431,211.9987a4.1,4.1,0,0,0-5.2393,2.4817l-6.2459,17.4884a4.1,4.1,0,1,0,7.7215,2.7576l6.2457-17.4887A4.0991,4.0991,0,0,0,80.7431,211.9987Z"/>
      <path class="cls-4" d="M122.0678,211.9987a4.0988,4.0988,0,0,0-5.24,2.4817l-6.2466,17.4884a4.1,4.1,0,1,0,7.7215,2.7576l6.2466-17.4887A4.0994,4.0994,0,0,0,122.0678,211.9987Z"/>
      <path class="cls-4" d="M158.5421,211.38a4.0992,4.0992,0,0,0-5.2395,2.4815l-6.2458,17.4889a4.0995,4.0995,0,1,0,7.7214,2.7574l6.2459-17.4889A4.0989,4.0989,0,0,0,158.5421,211.38Z"/>
      <path class="cls-4" d="M199.8667,211.38a4.0978,4.0978,0,0,0-5.2394,2.4815l-6.2467,17.4889a4.0995,4.0995,0,1,0,7.7214,2.7574l6.2467-17.4889A4.0992,4.0992,0,0,0,199.8667,211.38Z"/>
      <path class="cls-4" d="M141.6917,178.3431l-6.2459,17.4887a4.1,4.1,0,1,0,7.7215,2.7573l6.2458-17.4885a4.0851,4.0851,0,0,0-5.8123-4.9658v0A4.0707,4.0707,0,0,0,141.6917,178.3431Z"/>
      <path class="cls-4" d="M188.0491,175.8617a4.0985,4.0985,0,0,0-5.24,2.4814l-6.2466,17.4887a4.1,4.1,0,1,0,7.7215,2.7573l6.2466-17.4885A4.0993,4.0993,0,0,0,188.0491,175.8617Z"/>
      <path class="cls-4" d="M229.1663,175.8617a4.0984,4.0984,0,0,0-5.2394,2.4814l-6.2458,17.4887a4.0995,4.0995,0,1,0,7.7214,2.7573l6.2459-17.4885A4.0989,4.0989,0,0,0,229.1663,175.8617Z"/>
    </g>
  </g>
</svg>
