<svg id="ëÎÓÈ_1" data-name="ëÎÓÈ 1" xmlns="http://www.w3.org/2000/svg" width="332.3669" height="255.7553" viewBox="0 0 332.3669 255.7553">
  <defs>
    <style>
      .cls-1 {
        opacity: 0.2;
      }

      .cls-2 {
        fill: none;
      }

      .cls-3 {
        fill: #fff;
      }

      .cls-4 {
        fill: #ebebeb;
      }

      .cls-5 {
        fill: #ebbf02;
      }

      .cls-6 {
        fill: #78d9ff;
      }
    </style>
  </defs>
  <g>
    <path class="cls-1" d="M284.3118,90.9248A80.3128,80.3128,0,0,0,141.4371,45.0543,59.6228,59.6228,0,0,0,60.9843,100.9a60.1432,60.1432,0,0,0,.4265,7.0285A39.9975,39.9975,0,1,0,55.29,187.453H83.0437L59.0885,226.67a4.0992,4.0992,0,1,0,6.9961,4.274l26.566-43.4913h26.1923l-9.13,14.9476a4.0991,4.0991,0,1,0,6.9962,4.2736l11.7406-19.2212h29.108l-26.1008,42.73a4.099,4.099,0,1,0,6.9959,4.2738l28.7117-47.0037h9.732v13.3246l19.35.6965q4.1259.1489,8.2522.2084,3.3875.048,6.7747.0468-3.2624,8.4432-6.1,17.0979c-1.9256,5.9368-3.6922,11.9528-5.23,18.0824a161.431,161.431,0,0,0-3.6971,18.8457,161.4455,161.4455,0,0,0,12.8072-14.3109c3.9637-4.9223,7.6982-9.9585,11.2737-15.074a358.5339,358.5339,0,0,0,19.589-31.6209l4.03-7.2965H284.1a48.2643,48.2643,0,0,0,.2122-96.5282Z"/>
    <g>
      <polygon class="cls-2" points="161.602 172.47 161.602 185.795 168.454 172.47 161.602 172.47"/>
      <path class="cls-3" d="M126.1425,30.0717A59.6223,59.6223,0,0,0,45.69,85.9175a60.1472,60.1472,0,0,0,.4265,7.0285A39.9976,39.9976,0,1,0,39.9954,172.47H67.7492l13.8866-22.7336a4.0991,4.0991,0,0,1,6.996,4.2739L77.356,172.47h26.1923l28.7108-47.0037a4.0992,4.0992,0,0,1,6.9961,4.274l-26.1,42.73h29.108l11.7409-19.2211A4.0992,4.0992,0,1,1,161,157.5232L151.87,172.47h9.7319V4.7261A80.5537,80.5537,0,0,0,126.1425,30.0717Z"/>
      <path class="cls-4" d="M269.0172,75.9419A80.3822,80.3822,0,0,0,161.6016,4.7261V172.47h6.8524l1.6071-3.1249a366.6852,366.6852,0,0,1,19.5335-33.7235c3.5829-5.4668,7.3484-10.8477,11.3575-16.1145a167.1233,167.1233,0,0,1,13.0086-15.3393,167.2618,167.2618,0,0,1-3.496,19.8062c-1.4925,6.4487-3.2283,12.7828-5.1466,19.0313q-2.9736,9.7226-6.52,19.1758,3.4558.02,6.9109.0963c2.7505.0693,5.5011.1434,8.2518.2726l19.66.9235-4.9683,8.9965h40.1536a48.2645,48.2645,0,0,0,.2119-96.5285Z"/>
      <path class="cls-5" d="M213.96,162.55c-2.7507-.1292-5.5013-.2033-8.2518-.2726q-3.4554-.08-6.9109-.0963,3.5267-9.4629,6.52-19.1758c1.9183-6.2485,3.6541-12.5826,5.1466-19.0313a167.2618,167.2618,0,0,0,3.496-19.8062,167.1233,167.1233,0,0,0-13.0086,15.3393c-4.0091,5.2668-7.7746,10.6477-11.3575,16.1145a366.6852,366.6852,0,0,0-19.5335,33.7235L168.454,172.47l-6.8524,13.3244,19.35.6967q4.1259.1487,8.2522.2081,3.3875.0483,6.7747.0471-3.2624,8.4429-6.1,17.0978c-1.9255,5.9368-3.6922,11.9528-5.23,18.0825a161.4545,161.4545,0,0,0-3.6971,18.8456,161.472,161.472,0,0,0,12.8072-14.3109c3.9637-4.9223,7.6983-9.9586,11.2738-15.0741a358.5666,358.5666,0,0,0,19.589-31.6209l4.03-7.2963,4.9683-8.9965Z"/>
      <path class="cls-6" d="M43.7939,211.6876a4.0992,4.0992,0,1,0,6.9961,4.2741L77.356,172.47H67.7492Z"/>
      <path class="cls-6" d="M87.2706,148.3757a4.0992,4.0992,0,0,0-5.6348,1.3611L67.7492,172.47H77.356l11.2758-18.46A4.099,4.099,0,0,0,87.2706,148.3757Z"/>
      <path class="cls-6" d="M94.418,187.4177a4.0992,4.0992,0,1,0,6.9962,4.2739L113.1548,172.47h-9.6065Z"/>
      <path class="cls-6" d="M137.894,124.1056a4.0981,4.0981,0,0,0-5.6349,1.3611L103.5483,172.47h9.6065l26.1-42.73A4.0993,4.0993,0,0,0,137.894,124.1056Z"/>
      <path class="cls-6" d="M116.1621,215.2a4.099,4.099,0,1,0,6.9959,4.2738L151.87,172.47h-9.6069Z"/>
      <path class="cls-6" d="M159.6388,151.8881a4.0992,4.0992,0,0,0-5.6351,1.3612L142.2628,172.47H151.87L161,157.5232A4.0994,4.0994,0,0,0,159.6388,151.8881Z"/>
    </g>
  </g>
</svg>
