<svg id="ëÎÓÈ_1" data-name="ëÎÓÈ 1" xmlns="http://www.w3.org/2000/svg" width="306.4529" height="255.6962" viewBox="0 0 306.4529 255.6962">
  <defs>
    <style>
      .cls-1 {
        opacity: 0.2;
      }

      .cls-2 {
        fill: #ebebeb;
      }

      .cls-3 {
        fill: #fff;
      }

      .cls-4 {
        fill: #78d9ff;
      }
    </style>
  </defs>
  <g>
    <g class="cls-1">
      <path d="M261.6277,85.368A74.9316,74.9316,0,0,0,128.3565,42.5808a55.6149,55.6149,0,0,0-75.0451,52.092,56.0743,56.0743,0,0,0,.398,6.5561A37.3092,37.3092,0,1,0,48,175.4081H261.43a45.02,45.02,0,0,0,.1975-90.04Z"/>
      <path d="M169.78,229.7252a4.0989,4.0989,0,0,0-5.2393,2.4816l-6.4326,18.01a4.1,4.1,0,1,0,7.7215,2.7573l6.4324-18.01A4.0992,4.0992,0,0,0,169.78,229.7252Z"/>
      <path d="M212.3356,229.7252a4.0985,4.0985,0,0,0-5.2395,2.4816l-6.4324,18.01a4.1,4.1,0,1,0,7.7216,2.7573l6.4322-18.01A4.099,4.099,0,0,0,212.3356,229.7252Z"/>
      <path d="M157.8228,193.148a4.0988,4.0988,0,0,0-5.2395,2.4816l-6.4316,18.01a4.0995,4.0995,0,1,0,7.7214,2.7574l6.4318-18.01A4.099,4.099,0,0,0,157.8228,193.148Z"/>
      <path d="M200.1657,193.148a4.0993,4.0993,0,0,0-5.2394,2.4816l-6.4316,18.01a4.1,4.1,0,1,0,7.7215,2.7574l6.4315-18.01A4.0988,4.0988,0,0,0,200.1657,193.148Z"/>
      <path d="M242.5089,193.148a4.0985,4.0985,0,0,0-5.24,2.4816l-6.4325,18.01a4.1,4.1,0,1,0,7.7215,2.7574l6.4324-18.01A4.0992,4.0992,0,0,0,242.5089,193.148Z"/>
      <path d="M76.4441,212.7582a4.099,4.099,0,0,0-1.5-5.6l-5.9179-3.4168,5.9179-3.4167a4.0992,4.0992,0,1,0-4.0992-7.1l-5.9184,3.4169v-6.8333a4.0993,4.0993,0,0,0-8.1986,0v6.8329L50.81,193.2249a4.0992,4.0992,0,1,0-4.0991,7.1l5.9178,3.4167-5.9178,3.4168a4.0993,4.0993,0,1,0,4.0991,7.1l5.9177-3.4166v6.8333a4.0993,4.0993,0,1,0,8.1986,0v-6.8337l5.9184,3.417a4.0969,4.0969,0,0,0,5.6-1.5005Z"/>
      <path d="M129.5976,194.7252a4.0994,4.0994,0,0,0-5.6-1.5l-5.9176,3.4165v-6.8329a4.0993,4.0993,0,1,0-8.1985,0v6.8329l-5.9176-3.4165a4.0993,4.0993,0,1,0-4.1,7.1l5.9179,3.4167-5.9179,3.4168a4.0994,4.0994,0,1,0,4.1,7.1l5.9176-3.4167v6.8334a4.0993,4.0993,0,1,0,8.1985,0V210.842l5.9176,3.4167a4.0993,4.0993,0,1,0,4.0993-7.1l-5.9178-3.4168,5.9178-3.4167A4.0994,4.0994,0,0,0,129.5976,194.7252Z"/>
      <path d="M103.1657,228.6455a4.0988,4.0988,0,0,0-5.6-1.5l-5.9176,3.4166v-6.8334a4.0993,4.0993,0,1,0-8.1986,0v6.8334l-5.9176-3.4166a4.0993,4.0993,0,0,0-4.0993,7.1l5.9177,3.4168-5.9177,3.4166a4.0993,4.0993,0,1,0,4.0993,7.1l5.9176-3.4166v6.8334a4.0993,4.0993,0,1,0,8.1986,0v-6.8334l5.9176,3.4166a4.0992,4.0992,0,0,0,4.0992-7.1l-5.9178-3.4166,5.9178-3.4168A4.0991,4.0991,0,0,0,103.1657,228.6455Z"/>
    </g>
    <g>
      <path class="cls-2" d="M250.9348,70.8374A74.9238,74.9238,0,0,0,149.8517,4.7567V160.8775H250.7372a45.02,45.02,0,0,0,.1976-90.04Z"/>
      <path class="cls-3" d="M117.6635,28.05a55.6144,55.6144,0,0,0-75.0451,52.092,56.0752,56.0752,0,0,0,.398,6.556,37.3091,37.3091,0,1,0-5.7095,74.1791H149.8517V4.7567A75.1469,75.1469,0,0,0,117.6635,28.05Z"/>
      <path class="cls-4" d="M159.0875,215.1946a4.0991,4.0991,0,0,0-5.2394,2.4816l-6.4326,18.01a4.1,4.1,0,1,0,7.7215,2.7574l6.4324-18.01A4.0992,4.0992,0,0,0,159.0875,215.1946Z"/>
      <path class="cls-4" d="M201.6426,215.1946a4.0987,4.0987,0,0,0-5.2395,2.4816l-6.4322,18.01a4.0995,4.0995,0,1,0,7.7214,2.7574l6.4323-18.01A4.0992,4.0992,0,0,0,201.6426,215.1946Z"/>
      <path class="cls-4" d="M147.13,178.6174a4.0986,4.0986,0,0,0-5.2394,2.4817l-6.4318,18.01a4.1,4.1,0,1,0,7.7214,2.7575l6.4318-18.01A4.0992,4.0992,0,0,0,147.13,178.6174Z"/>
      <path class="cls-4" d="M189.4727,178.6174a4.0994,4.0994,0,0,0-5.2394,2.4817l-6.4315,18.01a4.1,4.1,0,1,0,7.7214,2.7575l6.4316-18.01A4.099,4.099,0,0,0,189.4727,178.6174Z"/>
      <path class="cls-4" d="M231.8159,178.6174a4.0985,4.0985,0,0,0-5.2395,2.4817l-6.4325,18.01a4.1,4.1,0,1,0,7.7216,2.7575l6.4324-18.01A4.0993,4.0993,0,0,0,231.8159,178.6174Z"/>
      <path class="cls-3" d="M65.7512,198.2277a4.0992,4.0992,0,0,0-1.5005-5.6l-5.9179-3.4166,5.9179-3.4168a4.0993,4.0993,0,1,0-4.0992-7.1l-5.9184,3.417V175.278a4.0993,4.0993,0,1,0-8.1986,0v6.8328l-5.9177-3.4165a4.0993,4.0993,0,0,0-4.0991,7.1l5.9178,3.4168-5.9178,3.4166a4.0993,4.0993,0,1,0,4.0991,7.1l5.9177-3.4165v6.8333a4.0993,4.0993,0,0,0,8.1986,0v-6.8337l5.9184,3.4169a4.0968,4.0968,0,0,0,5.6-1.5Z"/>
      <path class="cls-3" d="M118.9046,180.1948a4.0992,4.0992,0,0,0-5.6-1.5l-5.9176,3.4166V175.278a4.0993,4.0993,0,1,0-8.1985,0v6.8329l-5.9177-3.4166a4.0993,4.0993,0,1,0-4.0994,7.1l5.9179,3.4168-5.9179,3.4166a4.0993,4.0993,0,1,0,4.0994,7.1l5.9177-3.4165v6.8333a4.0993,4.0993,0,1,0,8.1985,0v-6.8333l5.9176,3.4165a4.0993,4.0993,0,0,0,4.0993-7.1l-5.9178-3.4166,5.9178-3.4168A4.0991,4.0991,0,0,0,118.9046,180.1948Z"/>
      <path class="cls-3" d="M92.4728,214.115a4.0988,4.0988,0,0,0-5.6-1.5l-5.9176,3.4166v-6.8334a4.0994,4.0994,0,0,0-8.1987,0v6.8334l-5.9175-3.4166a4.0993,4.0993,0,1,0-4.0994,7.1l5.9177,3.4168L62.74,226.5483a4.0992,4.0992,0,1,0,4.0994,7.1l5.9175-3.4165v6.8333a4.0994,4.0994,0,0,0,8.1987,0v-6.8333l5.9176,3.4165a4.0992,4.0992,0,1,0,4.0991-7.1l-5.9176-3.4168,5.9176-3.4168A4.0991,4.0991,0,0,0,92.4728,214.115Z"/>
    </g>
  </g>
</svg>
