<svg id="ëÎÓÈ_1" data-name="ëÎÓÈ 1" xmlns="http://www.w3.org/2000/svg" width="254.4585" height="287.081" viewBox="0 0 254.4585 287.081">
  <defs>
    <style>
      .cls-1 {
        opacity: 0.2;
      }

      .cls-2 {
        fill: #ebebeb;
      }

      .cls-3 {
        fill: #fff;
      }
    </style>
  </defs>
  <g>
    <path class="cls-1" d="M141.0652,29.0338V18.75a7.1365,7.1365,0,0,0-7.1362-7.1365h0a7.1366,7.1366,0,0,0-7.1365,7.1365V29.0338A120.53,120.53,0,0,0,13.4,149.3471h.2338a37.5853,37.5853,0,0,1,60.2012-.4443,37.4867,37.4867,0,0,1,52.9576-6.9157V269.6434c0,1.1158-2.27,3.1647-5.9782,3.1647s-5.9782-2.0489-5.9782-3.1647v-4.3666a7.1365,7.1365,0,1,0-14.2729,0v4.3666c0,9.615,9.0843,17.4376,20.2511,17.4376a22.1544,22.1544,0,0,0,13.1149-4.1753,16.5362,16.5362,0,0,0,7.1362-13.2623V141.6175a37.3522,37.3522,0,0,1,22.5579-7.5716,37.7283,37.7283,0,0,1,29.93,14.8569,37.5852,37.5852,0,0,1,60.2011.4443h.7045A120.53,120.53,0,0,0,141.0652,29.0338Z"/>
    <g>
      <path class="cls-2" d="M127.6656,17.4209V7.1365A7.1369,7.1369,0,0,0,120.5294,0V271.2928a16.5362,16.5362,0,0,0,7.1362-13.2623V130.0046a37.3522,37.3522,0,0,1,22.5579-7.5716,37.728,37.728,0,0,1,29.93,14.8569,37.5852,37.5852,0,0,1,60.2011.4443h.7046A120.53,120.53,0,0,0,127.6656,17.4209Z"/>
      <path class="cls-3" d="M120.5291,0a7.1368,7.1368,0,0,0-7.1365,7.1365V17.4209A120.53,120.53,0,0,0,0,137.7342H.2339a37.5853,37.5853,0,0,1,60.2012-.4443,37.4866,37.4866,0,0,1,52.9575-6.9157V258.0305c0,1.1157-2.27,3.1647-5.9782,3.1647s-5.9781-2.049-5.9781-3.1647v-4.3666a7.1365,7.1365,0,1,0-14.273,0v4.3666c0,9.615,9.0843,17.4376,20.2511,17.4376a22.1547,22.1547,0,0,0,13.115-4.1753V0Z"/>
    </g>
  </g>
</svg>
