<svg id="ëÎÓÈ_1" data-name="ëÎÓÈ 1" xmlns="http://www.w3.org/2000/svg" width="321.9477" height="192.2324" viewBox="0 0 321.9477 192.2324">
  <defs>
    <style>
      .cls-1 {
        opacity: 0.2;
      }

      .cls-2 {
        fill: #fff;
      }
    </style>
  </defs>
  <g>
    <g class="cls-1">
      <path d="M296.6913,49.6331a41.3673,41.3673,0,0,0-41.3205-41.32A33.5189,33.5189,0,0,0,221.89,41.7943v.6371a6.5589,6.5589,0,0,0,13.1177,0v-.6371a20.3868,20.3868,0,0,1,20.3637-20.3636,28.2026,28.2026,0,0,1,0,56.4052H32.0165a6.5589,6.5589,0,0,0,0,13.1178H255.3716A41.3668,41.3668,0,0,0,296.6913,49.6331Z"/>
      <path d="M185.9162,136.99H50.5837a6.559,6.559,0,0,0,0,13.1179H185.9162a14.5033,14.5033,0,1,1,0,29.0066,9.7648,9.7648,0,0,1-9.7536-9.7536v-.3858a6.5589,6.5589,0,1,0-13.1177,0v.3858a22.8974,22.8974,0,0,0,22.8713,22.8714,27.6212,27.6212,0,1,0,0-55.2423Z"/>
      <path d="M202.6185,56.3242a6.559,6.559,0,0,0-6.5591-6.559H20.9462a6.559,6.559,0,1,0,0,13.1179H196.0594A6.559,6.559,0,0,0,202.6185,56.3242Z"/>
      <path d="M287.1723,108.5855H76.7312a6.559,6.559,0,0,0,0,13.1179H287.1723a21.6572,21.6572,0,1,1,0,43.3143,6.5589,6.5589,0,0,0,0,13.1177,34.775,34.775,0,1,0,0-69.55Z"/>
    </g>
    <g>
      <path class="cls-2" d="M282.3042,41.32A41.3673,41.3673,0,0,0,240.9837,0,33.519,33.519,0,0,0,207.503,33.4814v.637a6.5589,6.5589,0,1,0,13.1178,0v-.637a20.3868,20.3868,0,0,1,20.3637-20.3636,28.2026,28.2026,0,0,1,0,56.4052H17.63a6.5589,6.5589,0,0,0,0,13.1178h223.355A41.3667,41.3667,0,0,0,282.3042,41.32Z"/>
      <path class="cls-2" d="M171.5292,128.6772H36.1966a6.5589,6.5589,0,0,0,0,13.1178H171.5292a14.5034,14.5034,0,1,1,0,29.0067,9.7647,9.7647,0,0,1-9.7536-9.7535v-.3859a6.5589,6.5589,0,0,0-13.1178,0v.3859A22.8973,22.8973,0,0,0,171.5292,183.92a27.6212,27.6212,0,1,0,0-55.2423Z"/>
      <path class="cls-2" d="M188.2314,48.0112a6.5589,6.5589,0,0,0-6.5589-6.5589H6.5589a6.5589,6.5589,0,1,0,0,13.1178H181.6725A6.5589,6.5589,0,0,0,188.2314,48.0112Z"/>
      <path class="cls-2" d="M272.7853,100.2726H62.3441a6.5589,6.5589,0,1,0,0,13.1178H272.7853a21.6572,21.6572,0,1,1,0,43.3143,6.5589,6.5589,0,0,0,0,13.1178,34.775,34.775,0,1,0,0-69.55Z"/>
    </g>
  </g>
</svg>
